# This file uses centimeters as units for non-parametric coordinates.

mtllib glijbaan.mtl
g default
v 0.997919 -3.375396 0.000000
v 0.997919 -3.153444 -0.000000
v 1.190136 -3.264420 0.000000
v -0.553948 -3.157768 -0.830051
v -0.553948 -2.935816 -0.830051
v -0.660648 -3.046792 -0.989933
v -0.382923 -2.940140 0.921527
v -0.382923 -2.718187 0.921527
v -0.456681 -2.829164 1.099030
v 0.979071 -2.722512 -0.193034
v 0.979071 -2.500559 -0.193034
v 1.167657 -2.611536 -0.230216
v -0.704047 -2.504884 -0.707220
v -0.704047 -2.282931 -0.707220
v -0.839659 -2.393908 -0.843443
v -0.197434 -2.287256 0.978194
v -0.197434 -2.065303 0.978194
v -0.235464 -2.176280 1.166611
v 0.923240 -2.069628 -0.378776
v 0.923240 -1.847675 -0.378776
v 1.101072 -1.958652 -0.451734
v -0.827552 -1.852000 -0.557675
v -0.827552 -1.630047 -0.557675
v -0.986952 -1.741023 -0.665093
v -0.004487 -1.634372 0.997909
v -0.004487 -1.412419 0.997909
v -0.005351 -1.523395 1.190124
v 0.832533 -1.416744 -0.550210
v 0.832533 -1.194791 -0.550210
v 0.992894 -1.305767 -0.656190
v -0.919796 -1.199116 -0.387063
v -0.919796 -0.977163 -0.387063
v -1.096965 -1.088139 -0.461618
v 0.188629 -0.981488 0.979930
v 0.188629 -0.759535 0.979930
v 0.224962 -0.870511 1.168681
v 0.710379 -0.763860 -0.700860
v 0.710379 -0.541907 -0.700860
v 0.847210 -0.652883 -0.835858
v -0.977296 -0.546232 -0.201831
v -0.977296 -0.324279 -0.201831
v -1.165540 -0.435255 -0.240708
v 0.374620 -0.328604 0.924934
v 0.374620 -0.106651 0.924934
v 0.446778 -0.217627 1.103092
v 0.561389 -0.110976 -0.825036
v 0.561389 0.110977 -0.825036
v 0.669523 0.000001 -0.983953
v -0.997879 0.106652 -0.008974
v -0.997879 0.328605 -0.008974
v -1.190088 0.217629 -0.010702
v 0.546461 0.324280 0.834999
v 0.546461 0.546233 0.834999
v 0.651719 0.435257 0.995834
v 0.391195 0.541908 -0.918047
v 0.391195 0.763861 -0.918047
v 0.466546 0.652885 -1.094878
v -0.980768 0.759536 0.184221
v -0.980768 0.981489 0.184221
v -1.169681 0.870513 0.219705
v 0.697659 0.977164 0.713523
v 0.697659 1.199117 0.713523
v 0.832040 1.088141 0.850960
v 0.206223 1.194792 -0.976379
v 0.206223 1.416745 -0.976378
v 0.245946 1.305769 -1.164446
v -0.926609 1.412420 0.370457
v -0.926609 1.634373 0.370457
v -1.105090 1.523397 0.441814
v 0.822503 1.630048 0.565095
v 0.822503 1.852001 0.565095
v 0.980931 1.741025 0.673942
v 0.013462 1.847676 -0.997828
v 0.013462 2.069629 -0.997828
v 0.016055 1.958653 -1.190027
v -0.837449 2.065304 0.542700
v -0.837448 2.287257 0.542700
v -0.998755 2.176281 0.647233
v 0.916278 2.282933 0.395320
v 0.916278 2.504885 0.395320
v 1.092768 2.393909 0.471466
v -0.179808 2.500561 -0.981587
v -0.179808 2.722513 -0.981587
v -0.214442 2.611537 -1.170657
v -0.716654 2.718189 0.694442
v -0.716654 2.940141 0.694442
v -0.854694 2.829165 0.828204
v 0.975441 2.935817 0.210613
v 0.975441 3.157769 0.210613
v 1.163328 3.046793 0.251181
v -0.366289 3.153445 -0.928265
v -0.366289 3.375397 -0.928265
v -0.436843 3.264421 -1.107064
vt 0.421875 0.020934
vt 0.421875 0.291566
vt 0.656250 0.156250
vt 0.375000 0.312500
vt 0.458333 0.312500
vt 0.541667 0.312500
vt 0.625000 0.312500
vt 0.375000 0.325031
vt 0.458333 0.325031
vt 0.541667 0.325031
vt 0.625000 0.325031
vt 0.375000 0.337563
vt 0.458333 0.337563
vt 0.541667 0.337563
vt 0.625000 0.337563
vt 0.375000 0.350094
vt 0.458333 0.350094
vt 0.541667 0.350094
vt 0.625000 0.350094
vt 0.375000 0.362625
vt 0.458333 0.362625
vt 0.541667 0.362625
vt 0.625000 0.362625
vt 0.375000 0.375157
vt 0.458333 0.375157
vt 0.541667 0.375157
vt 0.625000 0.375157
vt 0.375000 0.387688
vt 0.458333 0.387688
vt 0.541667 0.387688
vt 0.625000 0.387688
vt 0.375000 0.400219
vt 0.458333 0.400219
vt 0.541667 0.400219
vt 0.625000 0.400219
vt 0.375000 0.412751
vt 0.458333 0.412751
vt 0.541667 0.412751
vt 0.625000 0.412751
vt 0.375000 0.425282
vt 0.458333 0.425282
vt 0.541667 0.425282
vt 0.625000 0.425282
vt 0.375000 0.437813
vt 0.458333 0.437813
vt 0.541667 0.437813
vt 0.625000 0.437813
vt 0.375000 0.450345
vt 0.458333 0.450345
vt 0.541667 0.450345
vt 0.625000 0.450345
vt 0.375000 0.462876
vt 0.458333 0.462876
vt 0.541667 0.462876
vt 0.625000 0.462876
vt 0.375000 0.475407
vt 0.458333 0.475407
vt 0.541667 0.475407
vt 0.625000 0.475407
vt 0.375000 0.487939
vt 0.458333 0.487939
vt 0.541667 0.487939
vt 0.625000 0.487939
vt 0.375000 0.500470
vt 0.458333 0.500470
vt 0.541667 0.500470
vt 0.625000 0.500470
vt 0.375000 0.513001
vt 0.458333 0.513001
vt 0.541667 0.513001
vt 0.625000 0.513001
vt 0.375000 0.525533
vt 0.458333 0.525533
vt 0.541667 0.525533
vt 0.625000 0.525533
vt 0.375000 0.538064
vt 0.458333 0.538064
vt 0.541667 0.538064
vt 0.625000 0.538064
vt 0.375000 0.550595
vt 0.458333 0.550595
vt 0.541667 0.550595
vt 0.625000 0.550595
vt 0.375000 0.563127
vt 0.458333 0.563127
vt 0.541667 0.563127
vt 0.625000 0.563127
vt 0.375000 0.575658
vt 0.458333 0.575658
vt 0.541667 0.575658
vt 0.625000 0.575658
vt 0.375000 0.588189
vt 0.458333 0.588189
vt 0.541667 0.588189
vt 0.625000 0.588189
vt 0.375000 0.600721
vt 0.458333 0.600721
vt 0.541667 0.600721
vt 0.625000 0.600721
vt 0.375000 0.613252
vt 0.458333 0.613252
vt 0.541667 0.613252
vt 0.625000 0.613252
vt 0.375000 0.625784
vt 0.458333 0.625784
vt 0.541667 0.625784
vt 0.625000 0.625784
vt 0.375000 0.638315
vt 0.458333 0.638315
vt 0.541667 0.638315
vt 0.625000 0.638315
vt 0.375000 0.650846
vt 0.458333 0.650846
vt 0.541667 0.650846
vt 0.625000 0.650846
vt 0.375000 0.663378
vt 0.458333 0.663378
vt 0.541667 0.663378
vt 0.625000 0.663378
vt 0.375000 0.675909
vt 0.458333 0.675909
vt 0.541667 0.675909
vt 0.625000 0.675909
vt 0.375000 0.688440
vt 0.458333 0.688440
vt 0.541667 0.688440
vt 0.625000 0.688440
vt 0.421875 0.708434
vt 0.421875 0.979066
vt 0.656250 0.843750
vn -0.471645 0.000000 0.881789
vn -0.471645 0.000000 0.881789
vn 0.428725 0.000000 0.903435
vn 0.669764 0.000000 0.742574
vn 0.401073 0.694678 -0.597129
vn -0.084784 0.848356 -0.522593
vn 0.402876 0.690643 -0.600585
vn -0.206845 0.861616 -0.463501
vn 0.326169 -0.564942 -0.757928
vn -0.348648 -0.861617 -0.368865
vn 0.322180 -0.576353 -0.751011
vn -0.450053 -0.848357 -0.278824
vn 0.513474 0.000000 -0.858105
vn 0.245871 0.000000 -0.969303
vn -0.387619 0.848356 0.360616
vn -0.270711 0.861616 0.429342
vn -0.113281 -0.861616 0.494758
vn 0.017906 -0.848356 0.529123
vn -0.998787 0.000000 0.049238
vn -0.942732 0.000000 0.333551
vn 0.515121 0.848357 0.122233
vn 0.507390 0.861616 -0.013158
vn 0.474413 -0.861616 -0.180416
vn 0.430175 -0.848357 -0.308609
vn 0.595385 0.000000 0.803440
vn 0.800755 -0.000000 0.598991
vn -0.184272 0.848357 -0.496321
vn -0.292597 0.861616 -0.414734
vn -0.413415 -0.861616 -0.294458
vn -0.495488 -0.848357 -0.186501
vn 0.337787 -0.000000 -0.941223
vn 0.053729 -0.000000 -0.998556
vn -0.310541 0.848357 0.428783
vn -0.182548 0.861616 0.473597
vn -0.015438 -0.861616 0.507325
vn 0.119917 -0.848357 0.515665
vn -0.970399 -0.000000 0.241509
vn -0.860406 -0.000000 0.509609
vn 0.529036 0.848357 0.020282
vn 0.495262 0.861616 -0.111056
vn 0.430554 -0.861616 -0.268777
vn 0.362354 -0.848357 -0.385993
vn 0.739554 -0.000000 0.673097
vn 0.901498 -0.000000 0.432783
vn -0.276798 0.848357 -0.451302
vn -0.367295 0.861616 -0.350302
vn -0.462566 -0.861616 -0.208927
vn -0.522206 -0.848357 -0.087133
vn 0.149341 -0.000000 -0.988786
vn -0.140443 -0.000000 -0.990089
vn -0.221733 0.848357 0.480755
vn -0.087489 0.861616 0.499963
vn 0.082989 -0.861616 0.500730
vn 0.217402 -0.848356 0.482729
vn -0.905353 -0.000000 0.424660
vn -0.745577 -0.000000 0.666420
vn 0.522968 0.848357 -0.082434
vn 0.464426 0.861616 -0.204759
vn 0.370430 -0.861616 -0.346985
vn 0.280846 -0.848357 -0.448795
vn 0.855787 -0.000000 0.517328
vn 0.968187 -0.000000 0.250227
vn -0.358868 0.848357 -0.389236
vn -0.428119 0.861616 -0.272639
vn -0.494243 -0.861616 -0.115505
vn -0.529197 -0.848357 0.015526
vn -0.044747 0.000000 -0.998998
vn -0.329309 -0.000000 -0.944222
vn -0.124550 0.848357 0.514566
vn 0.010874 0.861616 0.507444
vn 0.178281 -0.861616 0.475219
vn 0.306673 -0.848357 0.431558
vn -0.806110 -0.000000 0.591766
vn -0.602587 -0.000000 0.798053
vn 0.497145 0.848357 -0.182038
vn 0.416046 0.861616 -0.290729
vn 0.296315 -0.861616 -0.412086
vn 0.188728 -0.848357 -0.494644
vn 0.939694 0.000000 0.342016
vn 0.998304 0.000000 0.058219
vn -0.427382 0.848357 -0.312466
vn -0.472771 0.861616 -0.184676
vn -0.507251 -0.861616 -0.017718
vn -0.516199 -0.848357 0.117598
vn -0.237144 0.000000 -0.971474
vn -0.505736 0.000000 -0.862688
vn -0.022663 0.848356 0.528940
vn 0.108827 0.861616 0.495756
vn 0.266839 -0.861616 0.431758
vn 0.384360 -0.848357 0.364086
vn -0.676416 -0.000000 0.736520
vn -0.436833 -0.000000 0.899543
vn 0.452542 0.848357 -0.274766
vn 0.351951 0.861616 -0.365716
vn 0.211006 -0.861616 -0.461622
vn 0.089481 -0.848356 -0.521809
vn 0.988104 0.000000 0.153785
vn 0.990710 0.000000 -0.135990
vn -0.479753 0.848357 -0.223893
vn -0.499565 0.861616 -0.089736
vn -0.501098 -0.861616 0.080737
vn -0.483702 -0.848357 0.215229
vn -0.420584 0.000000 -0.907254
vn -0.663060 0.000000 -0.748566
vn 0.080081 0.848357 0.523333
vn 0.202669 0.861616 0.465342
vn 0.345317 -0.861616 0.371986
vn 0.447527 -0.848357 0.282860
vn -0.521170 0.000000 0.853453
vn -0.254578 -0.000000 0.967052
vn 0.390846 0.848357 -0.357114
vn 0.274561 0.861616 -0.426889
vn 0.117726 -0.861616 -0.493719
vn -0.013146 -0.848357 -0.529262
vn 0.999189 -0.000000 -0.040255
vn 0.945693 -0.000000 -0.325061
vn -0.514001 0.848357 -0.126861
vn -0.507487 0.861616 0.008594
vn -0.476016 -0.861616 0.176143
vn -0.432933 -0.848357 0.304729
vn -0.588136 -0.000000 -0.808762
vn -0.795336 -0.000000 -0.606169
vn 0.179801 0.848357 0.497958
vn 0.288855 0.861616 0.417349
vn 0.410750 -0.861616 0.298163
vn 0.493791 -0.848357 0.190949
vn -0.346238 -0.000000 0.938146
vn -0.062707 -0.000000 0.998032
vn 0.314385 0.848357 -0.425972
vn 0.186800 0.861616 -0.471935
vn 0.019999 -0.861616 -0.507166
vn -0.115276 -0.848357 -0.516723
vn 0.972531 -0.000000 -0.232774
vn 0.864953 0.000000 -0.501852
vn -0.528832 0.848357 -0.025040
vn -0.496241 0.861616 0.106597
vn -0.432954 -0.861616 0.264894
vn -0.365811 -0.848357 0.382719
vn -0.733471 0.000000 -0.679721
vn -0.897569 0.000000 -0.440874
vn 0.272728 0.848357 0.453774
vn 0.364129 0.861616 0.353592
vn 0.460668 -0.861616 0.213079
vn 0.521401 -0.848357 0.091826
vn -0.158228 0.000000 0.987403
vn 0.131532 -0.000000 0.991312
vn 0.226049 0.848357 -0.478740
vn 0.091982 0.861617 -0.499155
vn -0.078483 -0.861616 -0.501457
vn -0.213052 -0.848356 -0.484666
vn 0.909136 -0.000000 -0.416499
vn 0.751541 -0.000000 -0.659686
vn -0.523688 0.848357 0.077726
vn -0.466249 0.861617 0.200572
vn -0.373536 -0.861615 0.343641
vn -0.284871 -0.848356 0.446252
vn -0.851100 -0.000000 -0.525004
vn -0.965897 -0.000000 -0.258925
vn 0.355352 0.848356 0.392450
vn 0.425649 0.861616 0.276480
vn 0.493184 -0.861616 0.119944
vn 0.529315 -0.848357 -0.010766
vn 0.035759 -0.000000 0.999361
vn 0.320803 0.000000 0.947146
vn 0.129174 0.848356 -0.513425
vn -0.006310 0.861616 -0.507522
vn -0.174000 -0.861616 -0.476803
vn -0.302779 -0.848357 -0.434299
vn 0.811399 0.000000 -0.584493
vn 0.609740 -0.000000 -0.792602
vn -0.498763 0.848357 0.177558
vn -0.418645 0.861616 0.286974
vn -0.300009 -0.861616 0.409405
vn -0.193169 -0.848356 0.492927
vn -0.936580 0.000000 -0.350453
vn -0.997740 0.000000 -0.067193
vn 0.424555 0.848357 0.316297
vn 0.471091 0.861616 0.188919
vn 0.507071 -0.861616 0.022278
vn 0.517236 -0.848356 -0.112951
vn -0.647123 0.000000 0.762385
vn -0.647123 0.000000 0.762385
vn 0.580336 0.576353 -0.575350
vn 0.585306 0.564941 -0.581600
vn 0.410789 -0.690643 -0.595201
vn 0.408237 -0.694678 -0.592255
vn 0.000000 0.000000 1.000000
vn 0.000000 0.000000 1.000000
vn 0.000000 0.000000 1.000000
vn -0.930201 0.000000 0.367051
vn -0.930201 0.000000 0.367051
vn -0.930201 0.000000 0.367051
s 1
g pHelix1
usemtl initialShadingGroup
f 1/4/1 2/5/2 4/8/3
f 4/8/3 2/5/2 5/9/4
s 2
f 3/6/5 6/10/6 2/5/7
f 2/5/7 6/10/6 5/9/8
s 3
f 1/7/9 4/11/10 3/6/11
f 3/6/11 4/11/10 6/10/12
s 1
f 4/8/3 5/9/4 7/12/13
f 7/12/13 5/9/4 8/13/14
s 2
f 6/10/6 9/14/15 5/9/8
f 5/9/8 9/14/15 8/13/16
s 3
f 4/11/10 7/15/17 6/10/12
f 6/10/12 7/15/17 9/14/18
s 1
f 7/12/13 8/13/14 10/16/19
f 10/16/19 8/13/14 11/17/20
s 2
f 9/14/15 12/18/21 8/13/16
f 8/13/16 12/18/21 11/17/22
s 3
f 7/15/17 10/19/23 9/14/18
f 9/14/18 10/19/23 12/18/24
s 1
f 10/16/19 11/17/20 13/20/25
f 13/20/25 11/17/20 14/21/26
s 2
f 12/18/21 15/22/27 11/17/22
f 11/17/22 15/22/27 14/21/28
s 3
f 10/19/23 13/23/29 12/18/24
f 12/18/24 13/23/29 15/22/30
s 1
f 13/20/25 14/21/26 16/24/31
f 16/24/31 14/21/26 17/25/32
s 2
f 15/22/27 18/26/33 14/21/28
f 14/21/28 18/26/33 17/25/34
s 3
f 13/23/29 16/27/35 15/22/30
f 15/22/30 16/27/35 18/26/36
s 1
f 16/24/31 17/25/32 19/28/37
f 19/28/37 17/25/32 20/29/38
s 2
f 18/26/33 21/30/39 17/25/34
f 17/25/34 21/30/39 20/29/40
s 3
f 16/27/35 19/31/41 18/26/36
f 18/26/36 19/31/41 21/30/42
s 1
f 19/28/37 20/29/38 22/32/43
f 22/32/43 20/29/38 23/33/44
s 2
f 21/30/39 24/34/45 20/29/40
f 20/29/40 24/34/45 23/33/46
s 3
f 19/31/41 22/35/47 21/30/42
f 21/30/42 22/35/47 24/34/48
s 1
f 22/32/43 23/33/44 25/36/49
f 25/36/49 23/33/44 26/37/50
s 2
f 24/34/45 27/38/51 23/33/46
f 23/33/46 27/38/51 26/37/52
s 3
f 22/35/47 25/39/53 24/34/48
f 24/34/48 25/39/53 27/38/54
s 1
f 25/36/49 26/37/50 28/40/55
f 28/40/55 26/37/50 29/41/56
s 2
f 27/38/51 30/42/57 26/37/52
f 26/37/52 30/42/57 29/41/58
s 3
f 25/39/53 28/43/59 27/38/54
f 27/38/54 28/43/59 30/42/60
s 1
f 28/40/55 29/41/56 31/44/61
f 31/44/61 29/41/56 32/45/62
s 2
f 30/42/57 33/46/63 29/41/58
f 29/41/58 33/46/63 32/45/64
s 3
f 28/43/59 31/47/65 30/42/60
f 30/42/60 31/47/65 33/46/66
s 1
f 31/44/61 32/45/62 34/48/67
f 34/48/67 32/45/62 35/49/68
s 2
f 33/46/63 36/50/69 32/45/64
f 32/45/64 36/50/69 35/49/70
s 3
f 31/47/65 34/51/71 33/46/66
f 33/46/66 34/51/71 36/50/72
s 1
f 34/48/67 35/49/68 37/52/73
f 37/52/73 35/49/68 38/53/74
s 2
f 36/50/69 39/54/75 35/49/70
f 35/49/70 39/54/75 38/53/76
s 3
f 34/51/71 37/55/77 36/50/72
f 36/50/72 37/55/77 39/54/78
s 1
f 37/52/73 38/53/74 40/56/79
f 40/56/79 38/53/74 41/57/80
s 2
f 39/54/75 42/58/81 38/53/76
f 38/53/76 42/58/81 41/57/82
s 3
f 37/55/77 40/59/83 39/54/78
f 39/54/78 40/59/83 42/58/84
s 1
f 40/56/79 41/57/80 43/60/85
f 43/60/85 41/57/80 44/61/86
s 2
f 42/58/81 45/62/87 41/57/82
f 41/57/82 45/62/87 44/61/88
s 3
f 40/59/83 43/63/89 42/58/84
f 42/58/84 43/63/89 45/62/90
s 1
f 43/60/85 44/61/86 46/64/91
f 46/64/91 44/61/86 47/65/92
s 2
f 45/62/87 48/66/93 44/61/88
f 44/61/88 48/66/93 47/65/94
s 3
f 43/63/89 46/67/95 45/62/90
f 45/62/90 46/67/95 48/66/96
s 1
f 46/64/91 47/65/92 49/68/97
f 49/68/97 47/65/92 50/69/98
s 2
f 48/66/93 51/70/99 47/65/94
f 47/65/94 51/70/99 50/69/100
s 3
f 46/67/95 49/71/101 48/66/96
f 48/66/96 49/71/101 51/70/102
s 1
f 49/68/97 50/69/98 52/72/103
f 52/72/103 50/69/98 53/73/104
s 2
f 51/70/99 54/74/105 50/69/100
f 50/69/100 54/74/105 53/73/106
s 3
f 49/71/101 52/75/107 51/70/102
f 51/70/102 52/75/107 54/74/108
s 1
f 52/72/103 53/73/104 55/76/109
f 55/76/109 53/73/104 56/77/110
s 2
f 54/74/105 57/78/111 53/73/106
f 53/73/106 57/78/111 56/77/112
s 3
f 52/75/107 55/79/113 54/74/108
f 54/74/108 55/79/113 57/78/114
s 1
f 55/76/109 56/77/110 58/80/115
f 58/80/115 56/77/110 59/81/116
s 2
f 57/78/111 60/82/117 56/77/112
f 56/77/112 60/82/117 59/81/118
s 3
f 55/79/113 58/83/119 57/78/114
f 57/78/114 58/83/119 60/82/120
s 1
f 58/80/115 59/81/116 61/84/121
f 61/84/121 59/81/116 62/85/122
s 2
f 60/82/117 63/86/123 59/81/118
f 59/81/118 63/86/123 62/85/124
s 3
f 58/83/119 61/87/125 60/82/120
f 60/82/120 61/87/125 63/86/126
s 1
f 61/84/121 62/85/122 64/88/127
f 64/88/127 62/85/122 65/89/128
s 2
f 63/86/123 66/90/129 62/85/124
f 62/85/124 66/90/129 65/89/130
s 3
f 61/87/125 64/91/131 63/86/126
f 63/86/126 64/91/131 66/90/132
s 1
f 64/88/127 65/89/128 67/92/133
f 67/92/133 65/89/128 68/93/134
s 2
f 66/90/129 69/94/135 65/89/130
f 65/89/130 69/94/135 68/93/136
s 3
f 64/91/131 67/95/137 66/90/132
f 66/90/132 67/95/137 69/94/138
s 1
f 67/92/133 68/93/134 70/96/139
f 70/96/139 68/93/134 71/97/140
s 2
f 69/94/135 72/98/141 68/93/136
f 68/93/136 72/98/141 71/97/142
s 3
f 67/95/137 70/99/143 69/94/138
f 69/94/138 70/99/143 72/98/144
s 1
f 70/96/139 71/97/140 73/100/145
f 73/100/145 71/97/140 74/101/146
s 2
f 72/98/141 75/102/147 71/97/142
f 71/97/142 75/102/147 74/101/148
s 3
f 70/99/143 73/103/149 72/98/144
f 72/98/144 73/103/149 75/102/150
s 1
f 73/100/145 74/101/146 76/104/151
f 76/104/151 74/101/146 77/105/152
s 2
f 75/102/147 78/106/153 74/101/148
f 74/101/148 78/106/153 77/105/154
s 3
f 73/103/149 76/107/155 75/102/150
f 75/102/150 76/107/155 78/106/156
s 1
f 76/104/151 77/105/152 79/108/157
f 79/108/157 77/105/152 80/109/158
s 2
f 78/106/153 81/110/159 77/105/154
f 77/105/154 81/110/159 80/109/160
s 3
f 76/107/155 79/111/161 78/106/156
f 78/106/156 79/111/161 81/110/162
s 1
f 79/108/157 80/109/158 82/112/163
f 82/112/163 80/109/158 83/113/164
s 2
f 81/110/159 84/114/165 80/109/160
f 80/109/160 84/114/165 83/113/166
s 3
f 79/111/161 82/115/167 81/110/162
f 81/110/162 82/115/167 84/114/168
s 1
f 82/112/163 83/113/164 85/116/169
f 85/116/169 83/113/164 86/117/170
s 2
f 84/114/165 87/118/171 83/113/166
f 83/113/166 87/118/171 86/117/172
s 3
f 82/115/167 85/119/173 84/114/168
f 84/114/168 85/119/173 87/118/174
s 1
f 85/116/169 86/117/170 88/120/175
f 88/120/175 86/117/170 89/121/176
s 2
f 87/118/171 90/122/177 86/117/172
f 86/117/172 90/122/177 89/121/178
s 3
f 85/119/173 88/123/179 87/118/174
f 87/118/174 88/123/179 90/122/180
s 1
f 88/120/175 89/121/176 91/124/181
f 91/124/181 89/121/176 92/125/182
s 2rr
f 90/122/177 93/126/183 89/121/178
f 89/121/178 93/126/183 92/125/184
s 3
f 88/123/179 91/127/185 90/122/180
f 90/122/180 91/127/185 93/126/186
s off
f 1/1/187 3/3/188 2/2/189
f 91/129/190 92/128/191 93/130/192
